<svg xmlns="http://www.w3.org/2000/svg" viewBox="0 0 256 256" width="256" height="256">
  <defs>
    <linearGradient id="plate" gradientUnits="userSpaceOnUse"
      x1="10.24" y1="5.12" x2="245.76" y2="250.88">
      <stop offset="0" stop-color="#00E1FF"/>
      <stop offset="0.35" stop-color="#4F8DFF"/>
      <stop offset="0.7" stop-color="#A855F7"/>
      <stop offset="1" stop-color="#FF2BD8"/>
    </linearGradient>
  </defs>

  <path d="M64.23 32.77 C64.23 4.17 61.36 1.31 32.77 1.31 C4.17 1.31 1.31 4.17 1.31 32.77 C1.31 61.36 4.17 64.23 32.77 64.23 C61.36 64.23 64.23 61.36 64.23 32.77 Z" fill="url(#plate)"/>

  <g fill="#FFFFFF">
    <circle cx="69.63" cy="67.07" r="18.94"/>
    <circle cx="186.37" cy="67.07" r="18.94"/>
    <rect x="121.86" y="43.01" width="12.29" height="29.18" rx="6.14"/>
    <circle cx="128" cy="135.68" r="72.96"/>
  </g>

  <g fill="none" stroke="#FFFFFF" stroke-width="11.78" stroke-linecap="round">
    <line x1="110.59" y1="202.24" x2="90.11" y2="224.26"/>
    <line x1="145.41" y1="202.24" x2="165.89" y2="224.26"/>
  </g>

  <g fill="none" stroke-linecap="round">
    <line x1="128" y1="79.87" x2="128" y2="68.61" stroke="#221C4D" stroke-width="5.63" stroke-linecap="round"/>
    <line x1="157.7" y1="84.25" x2="161.54" y2="77.59" stroke="#221C4D" stroke-width="3.07" stroke-linecap="round"/>
    <line x1="179.43" y1="105.98" x2="186.09" y2="102.14" stroke="#221C4D" stroke-width="3.07" stroke-linecap="round"/>
    <line x1="183.81" y1="135.68" x2="195.07" y2="135.68" stroke="#221C4D" stroke-width="5.63" stroke-linecap="round"/>
    <line x1="179.43" y1="165.38" x2="186.09" y2="169.22" stroke="#221C4D" stroke-width="3.07" stroke-linecap="round"/>
    <line x1="157.7" y1="187.11" x2="161.54" y2="193.77" stroke="#221C4D" stroke-width="3.07" stroke-linecap="round"/>
    <line x1="128" y1="191.49" x2="128" y2="202.75" stroke="#221C4D" stroke-width="5.63" stroke-linecap="round"/>
    <line x1="98.3" y1="187.11" x2="94.46" y2="193.77" stroke="#221C4D" stroke-width="3.07" stroke-linecap="round"/>
    <line x1="76.57" y1="165.38" x2="69.91" y2="169.22" stroke="#221C4D" stroke-width="3.07" stroke-linecap="round"/>
    <line x1="72.19" y1="135.68" x2="60.93" y2="135.68" stroke="#221C4D" stroke-width="5.63" stroke-linecap="round"/>
    <line x1="76.57" y1="105.98" x2="69.91" y2="102.14" stroke="#221C4D" stroke-width="3.07" stroke-linecap="round"/>
    <line x1="98.3" y1="84.25" x2="94.46" y2="77.59" stroke="#221C4D" stroke-width="3.07" stroke-linecap="round"/>
  </g>

  <g fill="none" stroke-linecap="round">
    <line x1="133.03" y1="139.2" x2="96.54" y2="113.65" stroke="#221C4D" stroke-width="9.22" stroke-linecap="round"/>
    <line x1="122.68" y1="138.75" x2="175" y2="108.54" stroke="#221C4D" stroke-width="7.17" stroke-linecap="round"/>
    <line x1="128" y1="129.02" x2="128" y2="196.1" stroke="#FF2BD8" stroke-width="3.58" stroke-linecap="round"/>
  </g>

  <circle cx="128" cy="135.68" r="5.12" fill="#221C4D"/>
</svg>
